<mxfile host="Electron" agent="Mozilla/5.0 (Windows NT 10.0; Win64; x64) AppleWebKit/537.36 (KHTML, like Gecko) draw.io/26.0.9 Chrome/128.0.6613.186 Electron/32.2.5 Safari/537.36" version="26.0.9">
  <diagram name="Страница — 1" id="CbSvEMZzlXYWRJCguBHl">
    <mxGraphModel dx="974" dy="564" grid="1" gridSize="10" guides="1" tooltips="1" connect="1" arrows="1" fold="1" page="1" pageScale="1" pageWidth="827" pageHeight="1169" math="0" shadow="0">
      <root>
        <mxCell id="0" />
        <mxCell id="1" parent="0" />
        <mxCell id="LuP35nN34A9V8ax_Kk6m-1" value="AFigurе" style="html=1;whiteSpace=wrap;" vertex="1" parent="1">
          <mxGeometry x="359" y="140" width="110" height="50" as="geometry" />
        </mxCell>
        <mxCell id="LuP35nN34A9V8ax_Kk6m-2" value="A2DFigure" style="swimlane;fontStyle=0;childLayout=stackLayout;horizontal=1;startSize=26;fillColor=none;horizontalStack=0;resizeParent=1;resizeParentMax=0;resizeLast=0;collapsible=1;marginBottom=0;whiteSpace=wrap;html=1;" vertex="1" parent="1">
          <mxGeometry x="219" y="240" width="140" height="92" as="geometry" />
        </mxCell>
        <mxCell id="LuP35nN34A9V8ax_Kk6m-15" value="#square: float" style="text;strokeColor=none;fillColor=none;align=left;verticalAlign=top;spacingLeft=4;spacingRight=4;overflow=hidden;rotatable=0;points=[[0,0.5],[1,0.5]];portConstraint=eastwest;whiteSpace=wrap;html=1;" vertex="1" parent="LuP35nN34A9V8ax_Kk6m-2">
          <mxGeometry y="26" width="140" height="26" as="geometry" />
        </mxCell>
        <mxCell id="LuP35nN34A9V8ax_Kk6m-16" value="&lt;span style=&quot;color: rgb(0, 0, 0); font-family: Helvetica; font-size: 12px; font-style: normal; font-variant-ligatures: normal; font-variant-caps: normal; font-weight: 400; letter-spacing: normal; orphans: 2; text-align: left; text-indent: 0px; text-transform: none; widows: 2; word-spacing: 0px; -webkit-text-stroke-width: 0px; white-space: normal; background-color: rgb(251, 251, 251); text-decoration-thickness: initial; text-decoration-style: initial; text-decoration-color: initial; float: none; display: inline !important;&quot;&gt;#perimeter: float&lt;/span&gt;" style="text;whiteSpace=wrap;html=1;" vertex="1" parent="LuP35nN34A9V8ax_Kk6m-2">
          <mxGeometry y="52" width="140" height="40" as="geometry" />
        </mxCell>
        <mxCell id="LuP35nN34A9V8ax_Kk6m-6" value="A3DFigure" style="swimlane;fontStyle=0;childLayout=stackLayout;horizontal=1;startSize=26;fillColor=none;horizontalStack=0;resizeParent=1;resizeParentMax=0;resizeLast=0;collapsible=1;marginBottom=0;whiteSpace=wrap;html=1;" vertex="1" parent="1">
          <mxGeometry x="480" y="240" width="140" height="66" as="geometry" />
        </mxCell>
        <mxCell id="LuP35nN34A9V8ax_Kk6m-21" value="&lt;span style=&quot;color: rgb(0, 0, 0); font-family: Helvetica; font-size: 12px; font-style: normal; font-variant-ligatures: normal; font-variant-caps: normal; font-weight: 400; letter-spacing: normal; orphans: 2; text-align: left; text-indent: 0px; text-transform: none; widows: 2; word-spacing: 0px; -webkit-text-stroke-width: 0px; white-space: normal; background-color: rgb(251, 251, 251); text-decoration-thickness: initial; text-decoration-style: initial; text-decoration-color: initial; float: none; display: inline !important;&quot;&gt;#volume: float&lt;/span&gt;" style="text;whiteSpace=wrap;html=1;" vertex="1" parent="LuP35nN34A9V8ax_Kk6m-6">
          <mxGeometry y="26" width="140" height="40" as="geometry" />
        </mxCell>
        <mxCell id="LuP35nN34A9V8ax_Kk6m-7" value="circle" style="swimlane;fontStyle=0;childLayout=stackLayout;horizontal=1;startSize=26;fillColor=none;horizontalStack=0;resizeParent=1;resizeParentMax=0;resizeLast=0;collapsible=1;marginBottom=0;whiteSpace=wrap;html=1;" vertex="1" parent="1">
          <mxGeometry x="79" y="340" width="140" height="52" as="geometry" />
        </mxCell>
        <mxCell id="LuP35nN34A9V8ax_Kk6m-17" value="#radius: float" style="text;strokeColor=none;fillColor=none;align=left;verticalAlign=top;spacingLeft=4;spacingRight=4;overflow=hidden;rotatable=0;points=[[0,0.5],[1,0.5]];portConstraint=eastwest;whiteSpace=wrap;html=1;" vertex="1" parent="LuP35nN34A9V8ax_Kk6m-7">
          <mxGeometry y="26" width="140" height="26" as="geometry" />
        </mxCell>
        <mxCell id="LuP35nN34A9V8ax_Kk6m-8" value="square" style="swimlane;fontStyle=0;childLayout=stackLayout;horizontal=1;startSize=26;fillColor=none;horizontalStack=0;resizeParent=1;resizeParentMax=0;resizeLast=0;collapsible=1;marginBottom=0;whiteSpace=wrap;html=1;" vertex="1" parent="1">
          <mxGeometry x="79" y="430" width="140" height="52" as="geometry" />
        </mxCell>
        <mxCell id="LuP35nN34A9V8ax_Kk6m-18" value="#side: float" style="text;strokeColor=none;fillColor=none;align=left;verticalAlign=top;spacingLeft=4;spacingRight=4;overflow=hidden;rotatable=0;points=[[0,0.5],[1,0.5]];portConstraint=eastwest;whiteSpace=wrap;html=1;" vertex="1" parent="LuP35nN34A9V8ax_Kk6m-8">
          <mxGeometry y="26" width="140" height="26" as="geometry" />
        </mxCell>
        <mxCell id="LuP35nN34A9V8ax_Kk6m-9" value="triangle" style="swimlane;fontStyle=0;childLayout=stackLayout;horizontal=1;startSize=26;fillColor=none;horizontalStack=0;resizeParent=1;resizeParentMax=0;resizeLast=0;collapsible=1;marginBottom=0;whiteSpace=wrap;html=1;" vertex="1" parent="1">
          <mxGeometry x="79" y="533" width="140" height="52" as="geometry" />
        </mxCell>
        <mxCell id="LuP35nN34A9V8ax_Kk6m-19" value="ball" style="swimlane;fontStyle=0;childLayout=stackLayout;horizontal=1;startSize=26;fillColor=none;horizontalStack=0;resizeParent=1;resizeParentMax=0;resizeLast=0;collapsible=1;marginBottom=0;whiteSpace=wrap;html=1;" vertex="1" parent="1">
          <mxGeometry x="620" y="340" width="140" height="52" as="geometry" />
        </mxCell>
        <mxCell id="LuP35nN34A9V8ax_Kk6m-20" value="#radius: float" style="text;strokeColor=none;fillColor=none;align=left;verticalAlign=top;spacingLeft=4;spacingRight=4;overflow=hidden;rotatable=0;points=[[0,0.5],[1,0.5]];portConstraint=eastwest;whiteSpace=wrap;html=1;" vertex="1" parent="LuP35nN34A9V8ax_Kk6m-19">
          <mxGeometry y="26" width="140" height="26" as="geometry" />
        </mxCell>
        <mxCell id="LuP35nN34A9V8ax_Kk6m-22" value="cube" style="swimlane;fontStyle=0;childLayout=stackLayout;horizontal=1;startSize=26;fillColor=none;horizontalStack=0;resizeParent=1;resizeParentMax=0;resizeLast=0;collapsible=1;marginBottom=0;whiteSpace=wrap;html=1;" vertex="1" parent="1">
          <mxGeometry x="620" y="410" width="140" height="52" as="geometry" />
        </mxCell>
        <mxCell id="LuP35nN34A9V8ax_Kk6m-23" value="#side: float" style="text;strokeColor=none;fillColor=none;align=left;verticalAlign=top;spacingLeft=4;spacingRight=4;overflow=hidden;rotatable=0;points=[[0,0.5],[1,0.5]];portConstraint=eastwest;whiteSpace=wrap;html=1;" vertex="1" parent="LuP35nN34A9V8ax_Kk6m-22">
          <mxGeometry y="26" width="140" height="26" as="geometry" />
        </mxCell>
        <mxCell id="LuP35nN34A9V8ax_Kk6m-24" value="" style="endArrow=block;endFill=0;endSize=12;html=1;rounded=0;entryX=0.5;entryY=1;entryDx=0;entryDy=0;exitX=0.579;exitY=0;exitDx=0;exitDy=0;exitPerimeter=0;" edge="1" parent="1" source="LuP35nN34A9V8ax_Kk6m-2" target="LuP35nN34A9V8ax_Kk6m-1">
          <mxGeometry width="160" relative="1" as="geometry">
            <mxPoint x="300" y="220" as="sourcePoint" />
            <mxPoint x="460" y="220" as="targetPoint" />
            <Array as="points">
              <mxPoint x="300" y="230" />
              <mxPoint x="414" y="230" />
            </Array>
          </mxGeometry>
        </mxCell>
        <mxCell id="LuP35nN34A9V8ax_Kk6m-25" value="" style="endArrow=block;endFill=0;endSize=12;html=1;rounded=0;entryX=0.5;entryY=1;entryDx=0;entryDy=0;exitX=0.348;exitY=0.011;exitDx=0;exitDy=0;exitPerimeter=0;" edge="1" parent="1" source="LuP35nN34A9V8ax_Kk6m-6">
          <mxGeometry width="160" relative="1" as="geometry">
            <mxPoint x="528" y="240" as="sourcePoint" />
            <mxPoint x="414" y="190" as="targetPoint" />
            <Array as="points">
              <mxPoint x="528" y="230" />
              <mxPoint x="414" y="230" />
            </Array>
          </mxGeometry>
        </mxCell>
        <mxCell id="LuP35nN34A9V8ax_Kk6m-26" value="" style="endArrow=block;endFill=0;endSize=12;html=1;rounded=0;entryX=0.56;entryY=1.025;entryDx=0;entryDy=0;entryPerimeter=0;exitX=1;exitY=0.5;exitDx=0;exitDy=0;" edge="1" parent="1" source="LuP35nN34A9V8ax_Kk6m-7" target="LuP35nN34A9V8ax_Kk6m-16">
          <mxGeometry width="160" relative="1" as="geometry">
            <mxPoint x="260" y="420" as="sourcePoint" />
            <mxPoint x="420" y="420" as="targetPoint" />
            <Array as="points">
              <mxPoint x="297" y="366" />
            </Array>
          </mxGeometry>
        </mxCell>
        <mxCell id="LuP35nN34A9V8ax_Kk6m-28" value="" style="endArrow=block;endFill=0;endSize=12;html=1;rounded=0;entryX=0.557;entryY=1.039;entryDx=0;entryDy=0;entryPerimeter=0;exitX=1.002;exitY=0.157;exitDx=0;exitDy=0;exitPerimeter=0;" edge="1" parent="1" source="LuP35nN34A9V8ax_Kk6m-8" target="LuP35nN34A9V8ax_Kk6m-16">
          <mxGeometry width="160" relative="1" as="geometry">
            <mxPoint x="240" y="440" as="sourcePoint" />
            <mxPoint x="300" y="340" as="targetPoint" />
            <Array as="points">
              <mxPoint x="297" y="438" />
            </Array>
          </mxGeometry>
        </mxCell>
        <mxCell id="LuP35nN34A9V8ax_Kk6m-29" value="" style="endArrow=block;endFill=0;endSize=12;html=1;rounded=0;exitX=1;exitY=0.5;exitDx=0;exitDy=0;entryX=0.557;entryY=1.054;entryDx=0;entryDy=0;entryPerimeter=0;" edge="1" parent="1" source="LuP35nN34A9V8ax_Kk6m-9" target="LuP35nN34A9V8ax_Kk6m-16">
          <mxGeometry width="160" relative="1" as="geometry">
            <mxPoint x="229" y="448" as="sourcePoint" />
            <mxPoint x="330" y="380" as="targetPoint" />
            <Array as="points">
              <mxPoint x="300" y="560" />
            </Array>
          </mxGeometry>
        </mxCell>
        <mxCell id="LuP35nN34A9V8ax_Kk6m-30" value="" style="endArrow=block;endFill=0;endSize=12;html=1;rounded=0;entryX=0.439;entryY=1.007;entryDx=0;entryDy=0;entryPerimeter=0;exitX=1;exitY=0.5;exitDx=0;exitDy=0;" edge="1" parent="1" target="LuP35nN34A9V8ax_Kk6m-21">
          <mxGeometry width="160" relative="1" as="geometry">
            <mxPoint x="620" y="340" as="sourcePoint" />
            <mxPoint x="542" y="307" as="targetPoint" />
            <Array as="points">
              <mxPoint x="542" y="340" />
            </Array>
          </mxGeometry>
        </mxCell>
        <mxCell id="LuP35nN34A9V8ax_Kk6m-31" value="" style="endArrow=block;endFill=0;endSize=12;html=1;rounded=0;entryX=0.557;entryY=1.039;entryDx=0;entryDy=0;entryPerimeter=0;exitX=1.002;exitY=0.157;exitDx=0;exitDy=0;exitPerimeter=0;" edge="1" parent="1">
          <mxGeometry width="160" relative="1" as="geometry">
            <mxPoint x="619.9999999999995" y="410" as="sourcePoint" />
            <mxPoint x="541.9999999999995" y="306" as="targetPoint" />
            <Array as="points">
              <mxPoint x="541.9999999999995" y="410" />
            </Array>
          </mxGeometry>
        </mxCell>
      </root>
    </mxGraphModel>
  </diagram>
</mxfile>
